<svg xmlns="http://www.w3.org/2000/svg" viewBox="0 0 374.55 399.46"><defs><style>.cls-1,.cls-2{fill:none;stroke:#d4aca3;stroke-miterlimit:10;}.cls-2{stroke-width:6px;}</style></defs><title>Asset 6</title><g id="Layer_2" data-name="Layer 2"><g id="Layer_1-2" data-name="Layer 1"><path class="cls-1" d="M28.41,32C-6.34,61.21,3.56,118.31,8,143.69,16.52,193,43.34,224.91,65.57,251.56c18.1,21.7,31.6,37.89,54.26,45.55,7.4,2.5,15.94,4.15,27.88,10.9,12.72,7.2,15.8,12.54,30.93,25.77,23.48,20.52,35.7,31.2,48.65,28.65,6.16-1.21,11.51-7.08,22.21-18.83A181.29,181.29,0,0,0,275,307.25,216.13,216.13,0,0,0,289.85,272c5.6-17.36,5-22.88,11-34,4.23-7.8,6.55-8.83,18.37-22.64,29.67-34.65,39-56.07,42.13-64,3.61-9.06,24.74-62.06-3.2-97.07-17.31-21.68-46.5-26.66-49.66-27.15-9.77-1.54-22.38-3.52-35.93,2-9,3.69-12,8.05-17.95,6.92-8.91-1.67-8.75-12.56-20.94-22.75-3-2.48-15.24-12.75-26.85-9.84C192.16,7.2,186.31,30,184.48,37.17c-4.85,18.93-.76,32.23-5.14,33.71-4,1.34-9.64-8.75-16.57-17.21-18.61-22.72-45.7-33.14-63-36.39C91.27,15.7,54.41,10.07,28.41,32Z"/><path class="cls-2" d="M218.88,357.35C205.8,368.6,5.77,194.38,38.18,127.69c7-14.48,24.8-23.36,28.67-25.34,39.64-20.19,85.46,1.87,92.67,5.34,37.28,18,52.53,47,58,43.33,5.31-3.6-6.92-32.56-20-54C188.93,83,175,60.63,147.52,41.69c-18-12.4-46.45-32-82-26-6.2,1-25.78,4.64-42,20.66-25.28,25-21.08,63.32-18.67,87.34,5.12,51.14,30,86.46,42.67,104C67.86,255.84,99.37,299.46,152.18,307c24.9,3.57,44.39-2.34,58.67-6.67C266.43,283.51,297.6,243.3,324.18,209c23.41-30.19,43.51-56.84,46.67-96,1.19-14.73,2.74-38.3-12.67-58.67-19.34-25.56-51.45-27.58-58-28-35-2.2-59.83,18-68,24.67-30.87,25.12-36.82,60.45-44.66,103.33-3.53,19.29-14.5,90.46,16.66,168C214.26,347.44,221.5,355.09,218.88,357.35Z"/><path class="cls-2" d="M206.85,3.52c28.09-7.15,72.91,60.68,90,115.5,19,61.12,4.72,111.65-7,153-1.06,3.73-13.47,45.75-47.5,80-3.71,3.74-11.41,12.4-18,10.5-5.31-1.53-6.5-8.86-13.8-26.69-4.92-12-6.74-14.43-9.62-21.32-4.78-11.41-14.58-40.11-17.86-77.73C179.62,197.22,163.71,14.5,206.85,3.52Z"/><path class="cls-2" d="M143.21,303.1c13.75,13,26,23.26,35.43,30.68,16.92,13.35,36.61,28.72,65.06,42.8a298.1,298.1,0,0,0,29,12.5"/><path class="cls-2" d="M167.46,396.6a186.26,186.26,0,0,0,103.28-81.7"/></g></g></svg>