<svg xmlns="http://www.w3.org/2000/svg" viewBox="0 0 376.55 401.41"><defs><style>.cls-1{fill:none;stroke:#000;stroke-miterlimit:10;stroke-width:8px;}</style></defs><title>Asset 4</title><g id="Layer_2" data-name="Layer 2"><g id="Layer_1-2" data-name="Layer 1"><path class="cls-1" d="M219.88,358.35C206.8,369.6,6.77,195.38,39.18,128.69c7-14.48,24.8-23.36,28.67-25.34,39.64-20.19,85.46,1.87,92.67,5.34,37.28,18,52.53,47,58,43.33,5.31-3.6-6.92-32.56-20-54C189.93,84,176,61.63,148.52,42.69c-18-12.4-46.45-32-82-26-6.2,1-25.78,4.64-42,20.66-25.28,25-21.08,63.32-18.67,87.34,5.12,51.14,30,86.46,42.67,104,20.34,28.15,51.85,71.77,104.66,79.33,24.9,3.57,44.39-2.34,58.67-6.67C267.43,284.51,298.6,244.3,325.18,210c23.41-30.19,43.51-56.84,46.67-96,1.19-14.73,2.74-38.3-12.67-58.67-19.34-25.56-51.45-27.58-58-28-35-2.2-59.83,18-68,24.67-30.87,25.12-36.82,60.45-44.66,103.33-3.53,19.29-14.5,90.46,16.66,168C215.26,348.44,222.5,356.09,219.88,358.35Z"/><path class="cls-1" d="M207.85,4.52c28.09-7.15,72.91,60.68,90,115.5,19,61.12,4.72,111.65-7,153-1.06,3.73-13.47,45.75-47.5,80-3.71,3.74-11.41,12.4-18,10.5-5.31-1.53-6.5-8.86-13.8-26.69-4.92-12-6.74-14.43-9.62-21.32-4.78-11.41-14.58-40.11-17.86-77.73C180.62,198.22,164.71,15.5,207.85,4.52Z"/><path class="cls-1" d="M144.21,304.1c13.75,13,26,23.26,35.43,30.68,16.92,13.35,36.61,28.72,65.06,42.8a298.1,298.1,0,0,0,29,12.5"/><path class="cls-1" d="M168.46,397.6a186.26,186.26,0,0,0,103.28-81.7"/></g></g></svg>